<svg xmlns="http://www.w3.org/2000/svg" xmlns:svg="http://www.w3.org/2000/svg" xmlns:xlink="http://www.w3.org/1999/xlink" version="1.0" height="1061pt" width="1181pt" viewBox="114 -3 1189 1067" ><defs><style type="text/css">
            @font-face {
                font-family: 'lt_regular';
                src: url('https://app.creately.com/diagram/assets/fonts/lato/lt-regular-webfont.woff2') format('woff2'),
                    url('https://app.creately.com/diagram/assets/fonts/lato/lt-regular-webfont.woff') format('woff');
                font-weight: normal;
                font-style: normal;
            }
            @font-face {
                font-family: 'noto_regular';
                src: url('https://app.creately.com/diagram/assets/fonts/noto/noto-regular.woff') format('woff'),
                     url('https://app.creately.com/diagram/assets/fonts/noto/noto-regular.woff2') format('woff2');
                font-weight: normal;
                font-style: normal;
            }
        p {
            margin: 0;
        }
        </style></defs><defs><style>
            span{ display: inline-block; }
        </style></defs><g id="MYkvucNxdis"><g transform="translate(300 50)"><rect x="0" y="0" width="250.00000000000003" height="200" rx="2" ry="2" fill="rgb(255,255,255)" stroke="#5c1709" stroke-width="2" stroke-linecap="round" stroke-linejoin="round"/><path d="M 0,50 L 250.00000000000003,50 M 0,100 L 250.00000000000003,100" fill="rgb(255,255,255)" stroke="#5c1709" stroke-width="2" stroke-linecap="round" stroke-linejoin="round"/></g><g transform="translate(359, 55) rotate(0, 66, 0)" width="132" height="40"><text text-decoration="none" x="66" fill="#000000" font-size="11pt" font-family="lt_regular"  y="16"></text><text text-decoration="none" x="45" fill="#000000" font-size="11pt" font-family="lt_regular"  y="36">Admin&#160;</text><text text-decoration="none" x="20.5" fill="#000000" font-size="11pt" font-family="lt_regular"  y="56">Login/Logout</text><text text-decoration="none" x="111.5" fill="#4b4b4b" font-size="10pt" font-family="noto_regular"  y="56"></text></g><g transform="translate(310, 105) rotate(0, 0, 0)" width="127" height="40"><text text-decoration="none" x="0" fill="#000000" font-size="11pt" font-family="lt_regular"  y="16">-&#160;</text><text text-decoration="none" x="10" fill="#000000" font-size="11pt" font-family="lt_regular"  y="16">UserName&#160;</text><text text-decoration="none" x="82" fill="#000000" font-size="11pt" font-family="lt_regular"  y="16">:&#160;</text><text text-decoration="none" x="0" fill="#000000" font-size="11pt" font-family="lt_regular"  y="36">String</text><text text-decoration="none" x="38" fill="#000000" font-size="11pt" font-family="lt_regular"  y="36"></text><text text-decoration="none" x="0" fill="#000000" font-size="11pt" font-family="lt_regular"  y="56">-&#160;</text><text text-decoration="none" x="10" fill="#000000" font-size="11pt" font-family="lt_regular"  y="56">Password&#160;</text><text text-decoration="none" x="76" fill="#000000" font-size="11pt" font-family="lt_regular"  y="56">:&#160;</text><text text-decoration="none" x="84" fill="#000000" font-size="11pt" font-family="lt_regular"  y="56">String</text><text text-decoration="none" x="122" fill="#4b4b4b" font-size="10pt" font-family="noto_regular"  y="56"></text></g><g transform="translate(310, 155) rotate(0, 0, 0)" width="202" height="80"><text text-decoration="none" x="0" fill="#000000" font-size="11pt" font-family="lt_regular"  y="16">+&#160;</text><text text-decoration="none" x="13" fill="#000000" font-size="11pt" font-family="lt_regular"  y="16">GetName&#160;</text><text text-decoration="none" x="79" fill="#000000" font-size="11pt" font-family="lt_regular"  y="16">:&#160;</text><text text-decoration="none" x="87" fill="#000000" font-size="11pt" font-family="lt_regular"  y="16">UserName</text><text text-decoration="none" x="155" fill="#000000" font-size="11pt" font-family="lt_regular"  y="16"></text><text text-decoration="none" x="0" fill="#000000" font-size="11pt" font-family="lt_regular"  y="36">+&#160;</text><text text-decoration="none" x="13" fill="#000000" font-size="11pt" font-family="lt_regular"  y="36">GetPasswoprd&#160;</text><text text-decoration="none" x="111" fill="#000000" font-size="11pt" font-family="lt_regular"  y="36">:&#160;</text><text text-decoration="none" x="0" fill="#000000" font-size="11pt" font-family="lt_regular"  y="56">GetPassword</text><text text-decoration="none" x="86" fill="#000000" font-size="11pt" font-family="lt_regular"  y="56"></text><text text-decoration="none" x="0" fill="#000000" font-size="11pt" font-family="lt_regular"  y="76">+&#160;</text><text text-decoration="none" x="13" fill="#000000" font-size="11pt" font-family="lt_regular"  y="76">Verification&#160;</text><text text-decoration="none" x="93" fill="#000000" font-size="11pt" font-family="lt_regular"  y="76">()</text><text text-decoration="none" x="101" fill="#000000" font-size="11pt" font-family="lt_regular"  y="76"></text><text text-decoration="none" x="0" fill="#000000" font-size="11pt" font-family="lt_regular"  y="96">+&#160;</text><text text-decoration="none" x="13" fill="#000000" font-size="11pt" font-family="lt_regular"  y="96">Logout&#160;</text><text text-decoration="none" x="64" fill="#000000" font-size="11pt" font-family="lt_regular"  y="96">()</text><text text-decoration="none" x="72" fill="#4b4b4b" font-size="10pt" font-family="noto_regular"  y="96"></text></g></g><g id="esA3TDwDiXr"><g transform="translate(1000 0)"><rect x="0" y="0" width="300" height="300" rx="2" ry="2" fill="rgb(255,255,255)" stroke="#5c1709" stroke-width="2" stroke-linecap="round" stroke-linejoin="round"/><path d="M 0,30 L 300,30 M 0,160 L 300,160" fill="rgb(255,255,255)" stroke="#5c1709" stroke-width="2" stroke-linecap="round" stroke-linejoin="round"/></g><g transform="translate(1010, 5) rotate(0, 0, 0)" width="57" height="20"><text text-decoration="none" x="0" fill="#000000" font-size="11pt" font-family="lt_regular"  y="16">BlogPost</text><text text-decoration="none" x="60" fill="#4b4b4b" font-size="10pt" font-family="noto_regular"  y="16"></text></g><g transform="translate(1010, 35) rotate(0, 0, 0)" width="176" height="120"><text text-decoration="none" x="0" fill="#000000" font-size="11pt" font-family="lt_regular"  y="16">-&#160;</text><text text-decoration="none" x="10" fill="#000000" font-size="11pt" font-family="lt_regular"  y="16">PostBlog&#160;</text><text text-decoration="none" x="74" fill="#000000" font-size="11pt" font-family="lt_regular"  y="16">:&#160;</text><text text-decoration="none" x="82" fill="#000000" font-size="11pt" font-family="lt_regular"  y="16">String</text><text text-decoration="none" x="120" fill="#000000" font-size="11pt" font-family="lt_regular"  y="16"></text><text text-decoration="none" x="0" fill="#000000" font-size="11pt" font-family="lt_regular"  y="36">-&#160;</text><text text-decoration="none" x="10" fill="#000000" font-size="11pt" font-family="lt_regular"  y="36">EditBlog&#160;</text><text text-decoration="none" x="71" fill="#000000" font-size="11pt" font-family="lt_regular"  y="36">:&#160;</text><text text-decoration="none" x="79" fill="#000000" font-size="11pt" font-family="lt_regular"  y="36">String&#160;</text><text text-decoration="none" x="121" fill="#000000" font-size="11pt" font-family="lt_regular"  y="36"></text><text text-decoration="none" x="0" fill="#000000" font-size="11pt" font-family="lt_regular"  y="56">-&#160;</text><text text-decoration="none" x="10" fill="#000000" font-size="11pt" font-family="lt_regular"  y="56">DeleteBlog&#160;</text><text text-decoration="none" x="89" fill="#000000" font-size="11pt" font-family="lt_regular"  y="56">:&#160;</text><text text-decoration="none" x="97" fill="#000000" font-size="11pt" font-family="lt_regular"  y="56">Boolean</text><text text-decoration="none" x="152" fill="#000000" font-size="11pt" font-family="lt_regular"  y="56"></text><text text-decoration="none" x="0" fill="#000000" font-size="11pt" font-family="lt_regular"  y="76">-&#160;</text><text text-decoration="none" x="10" fill="#000000" font-size="11pt" font-family="lt_regular"  y="76">SetPrivacy&#160;</text><text text-decoration="none" x="83" fill="#000000" font-size="11pt" font-family="lt_regular"  y="76">:&#160;</text><text text-decoration="none" x="91" fill="#000000" font-size="11pt" font-family="lt_regular"  y="76">Boolean</text><text text-decoration="none" x="146" fill="#000000" font-size="11pt" font-family="lt_regular"  y="76"></text><text text-decoration="none" x="0" fill="#000000" font-size="11pt" font-family="lt_regular"  y="96">-&#160;</text><text text-decoration="none" x="10" fill="#000000" font-size="11pt" font-family="lt_regular"  y="96">SetDate&#160;</text><text text-decoration="none" x="66" fill="#000000" font-size="11pt" font-family="lt_regular"  y="96">:&#160;</text><text text-decoration="none" x="74" fill="#000000" font-size="11pt" font-family="lt_regular"  y="96">Date</text><text text-decoration="none" x="105" fill="#000000" font-size="11pt" font-family="lt_regular"  y="96"></text><text text-decoration="none" x="0" fill="#000000" font-size="11pt" font-family="lt_regular"  y="116">-&#160;</text><text text-decoration="none" x="10" fill="#000000" font-size="11pt" font-family="lt_regular"  y="116">CommentEnable:&#160;</text><text text-decoration="none" x="0" fill="#000000" font-size="11pt" font-family="lt_regular"  y="136">Boolean</text><text text-decoration="none" x="55" fill="#4b4b4b" font-size="10pt" font-family="noto_regular"  y="136"></text></g><g transform="translate(1010, 165) rotate(0, 0, 0)" width="253" height="120"><text text-decoration="none" x="0" fill="#000000" font-size="11pt" font-family="lt_regular"  y="16">+&#160;</text><text text-decoration="none" x="13" fill="#000000" font-size="11pt" font-family="lt_regular"  y="16">PostBlog&#160;</text><text text-decoration="none" x="77" fill="#000000" font-size="11pt" font-family="lt_regular"  y="16">:&#160;</text><text text-decoration="none" x="85" fill="#000000" font-size="11pt" font-family="lt_regular"  y="16">Post</text><text text-decoration="none" x="114" fill="#000000" font-size="11pt" font-family="lt_regular"  y="16"></text><text text-decoration="none" x="0" fill="#000000" font-size="11pt" font-family="lt_regular"  y="36">+&#160;</text><text text-decoration="none" x="13" fill="#000000" font-size="11pt" font-family="lt_regular"  y="36">EditBlog&#160;&#160;</text><text text-decoration="none" x="78" fill="#000000" font-size="11pt" font-family="lt_regular"  y="36">:&#160;</text><text text-decoration="none" x="86" fill="#000000" font-size="11pt" font-family="lt_regular"  y="36">Edit</text><text text-decoration="none" x="112" fill="#000000" font-size="11pt" font-family="lt_regular"  y="36"></text><text text-decoration="none" x="0" fill="#000000" font-size="11pt" font-family="lt_regular"  y="56">+&#160;</text><text text-decoration="none" x="13" fill="#000000" font-size="11pt" font-family="lt_regular"  y="56">DeleteBlog&#160;</text><text text-decoration="none" x="92" fill="#000000" font-size="11pt" font-family="lt_regular"  y="56">()&#160;</text><text text-decoration="none" x="104" fill="#000000" font-size="11pt" font-family="lt_regular"  y="56"></text><text text-decoration="none" x="0" fill="#000000" font-size="11pt" font-family="lt_regular"  y="76">+&#160;</text><text text-decoration="none" x="13" fill="#000000" font-size="11pt" font-family="lt_regular"  y="76">SetPrivacy&#160;</text><text text-decoration="none" x="86" fill="#000000" font-size="11pt" font-family="lt_regular"  y="76">:&#160;</text><text text-decoration="none" x="94" fill="#000000" font-size="11pt" font-family="lt_regular"  y="76">Boolean</text><text text-decoration="none" x="149" fill="#000000" font-size="11pt" font-family="lt_regular"  y="76"></text><text text-decoration="none" x="0" fill="#000000" font-size="11pt" font-family="lt_regular"  y="96">+&#160;</text><text text-decoration="none" x="13" fill="#000000" font-size="11pt" font-family="lt_regular"  y="96">SetDate&#160;</text><text text-decoration="none" x="69" fill="#000000" font-size="11pt" font-family="lt_regular"  y="96">:&#160;</text><text text-decoration="none" x="77" fill="#000000" font-size="11pt" font-family="lt_regular"  y="96">Date</text><text text-decoration="none" x="108" fill="#000000" font-size="11pt" font-family="lt_regular"  y="96"></text><text text-decoration="none" x="0" fill="#000000" font-size="11pt" font-family="lt_regular"  y="116">+SetCommentEnable:&#160;</text><text text-decoration="none" x="146" fill="#000000" font-size="11pt" font-family="lt_regular"  y="116">Enable&#160;</text><text text-decoration="none" x="0" fill="#000000" font-size="11pt" font-family="lt_regular"  y="136">Comment</text><text text-decoration="none" x="64" fill="#4b4b4b" font-size="10pt" font-family="noto_regular"  y="136"></text></g></g><g id="szwsVyNNPnS"><g transform="translate(700 50)"><rect x="0" y="0" width="150.00000000000003" height="200" rx="2" ry="2" fill="rgb(255,255,255)" stroke="#5c1709" stroke-width="2" stroke-linecap="round" stroke-linejoin="round"/><path d="M 0,30 L 150.00000000000003,30" fill="rgb(255,255,255)" stroke="#5c1709" stroke-width="2" stroke-linecap="round" stroke-linejoin="round"/></g><g transform="translate(710, 55) rotate(0, 0, 0)" width="42" height="20"><text text-decoration="none" x="0" fill="#000000" font-size="11pt" font-family="lt_regular"  y="16">Admin</text><text text-decoration="none" x="42" fill="#4b4b4b" font-size="10pt" font-family="noto_regular"  y="16"></text></g><g transform="translate(710, 85) rotate(0, 0, 0)" width="100" height="140"><text text-decoration="none" x="0" fill="#000000" font-size="11pt" font-family="lt_regular"  y="16">-&#160;</text><text text-decoration="none" x="0" fill="#000000" font-size="11pt" font-family="lt_regular"  y="36">Login/Logout</text><text text-decoration="none" x="91" fill="#000000" font-size="11pt" font-family="lt_regular"  y="36"></text><text text-decoration="none" x="0" fill="#000000" font-size="11pt" font-family="lt_regular"  y="56">-&#160;</text><text text-decoration="none" x="10" fill="#000000" font-size="11pt" font-family="lt_regular"  y="56">ViewBlog</text><text text-decoration="none" x="75" fill="#000000" font-size="11pt" font-family="lt_regular"  y="56"></text><text text-decoration="none" x="0" fill="#000000" font-size="11pt" font-family="lt_regular"  y="76">-&#160;</text><text text-decoration="none" x="10" fill="#000000" font-size="11pt" font-family="lt_regular"  y="76">PostBlog</text><text text-decoration="none" x="70" fill="#000000" font-size="11pt" font-family="lt_regular"  y="76"></text><text text-decoration="none" x="0" fill="#000000" font-size="11pt" font-family="lt_regular"  y="96">-&#160;</text><text text-decoration="none" x="10" fill="#000000" font-size="11pt" font-family="lt_regular"  y="96">EditBlog</text><text text-decoration="none" x="67" fill="#000000" font-size="11pt" font-family="lt_regular"  y="96"></text><text text-decoration="none" x="0" fill="#000000" font-size="11pt" font-family="lt_regular"  y="116">-&#160;</text><text text-decoration="none" x="0" fill="#000000" font-size="11pt" font-family="lt_regular"  y="136">PostComment</text><text text-decoration="none" x="93" fill="#000000" font-size="11pt" font-family="lt_regular"  y="136"></text><text text-decoration="none" x="0" fill="#000000" font-size="11pt" font-family="lt_regular"  y="156">-&#160;</text><text text-decoration="none" x="10" fill="#000000" font-size="11pt" font-family="lt_regular"  y="156">EditComment</text><text text-decoration="none" x="100" fill="#000000" font-size="11pt" font-family="lt_regular"  y="156"></text><text text-decoration="none" x="0" fill="#000000" font-size="11pt" font-family="lt_regular"  y="176">-&#160;</text><text text-decoration="none" x="10" fill="#000000" font-size="11pt" font-family="lt_regular"  y="176">SetPrivacy</text><text text-decoration="none" x="79" fill="#4b4b4b" font-size="10pt" font-family="noto_regular"  y="176"></text></g></g><g id="3RHFMgnxqzy"><mask id="e3572" x="536" y="86" width="178" height="28" maskUnits="userSpaceOnUse"><rect x="536" y="86" width="178" height="28" fill="white" /><rect x="604.5" y="87" width="41" height="26" fill="black" /></mask><g mask="url(#e3572)"><path d="M 700,100 L 550,100" fill="none" stroke="#9A9A9A" stroke-width="2" stroke-linecap="round" stroke-linejoin="round" stroke-dasharray="3 3"/><path d="M 550,100 L 556.9565217391304,106.49717514124293 M 550,100 L 556.9565217391304,93.50282485875707 Z" fill="rgb(255,255,255)" stroke="#9A9A9A" stroke-width="2" stroke-linecap="round" stroke-linejoin="round"/></g><g transform="translate(607.5, 90)" width="35" height="20"><text text-decoration="none" x="0" fill="rgb(84, 84, 84)" font-size="11pt" font-family="lt_regular"  y="16">Login</text><text text-decoration="none" x="37" fill="#4b4b4b" font-size="10pt" font-family="noto_regular"  y="16"></text></g></g><g id="IRWTb1ofb4g"><mask id="f3ed0" x="536" y="186" width="178" height="28" maskUnits="userSpaceOnUse"><rect x="536" y="186" width="178" height="28" fill="white" /><rect x="655" y="187" width="30" height="26" fill="black" /><rect x="567" y="187.5" width="26" height="25" fill="black" /></mask><g mask="url(#f3ed0)"><path d="M 700,200 L 550,200" fill="none" stroke="#9A9A9A" stroke-width="2" stroke-linecap="round" stroke-linejoin="round"/></g><g transform="translate(658, 190)" width="24" height="20"><text text-decoration="none" x="0" fill="rgb(75, 75, 75)" font-size="11pt" font-family="lt_regular"  y="16">0..1</text><text text-decoration="none" x="26" fill="#4b4b4b" font-size="10pt" font-family="noto_regular"  y="16"></text></g><g transform="translate(570, 190.5)" width="20" height="19"><text text-decoration="none" x="0" fill="#4b4b4b" font-size="10pt" font-family="lt_regular"  y="15">1..*</text><text text-decoration="none" x="20" fill="#4b4b4b" font-size="10pt" font-family="noto_regular"  y="15"></text></g></g><g id="cPiWZyyc5HZ"><g transform="translate(570 160)"><rect x="0" y="0" width="100" height="50" fill="rgba(255,255,255,0.01)" stroke="rgba(255,255,255,0.01)"/></g><g transform="translate(580, 170) rotate(0, 0, 0)" width="88" height="20"><text text-decoration="none" x="0" fill="#4b4b4b" font-size="11pt" font-family="lt_regular"  y="16">Authorization</text><text text-decoration="none" x="89" fill="#4b4b4b" font-size="10pt" font-family="noto_regular"  y="16"></text></g></g><g id="nA1TDpLO9Pv"><mask id="8f275" x="836" y="136" width="178" height="28" maskUnits="userSpaceOnUse"><rect x="836" y="136" width="178" height="28" fill="white" /><rect x="891.5" y="137" width="67" height="26" fill="black" /></mask><g mask="url(#8f275)"><path d="M 850,150 L 1000,150" fill="none" stroke="#9A9A9A" stroke-width="2" stroke-linecap="round" stroke-linejoin="round" stroke-dasharray="3 3"/><path d="M 1000,150 L 993.0434782608696,143.50282485875707 M 1000,150 L 993.0434782608696,156.49717514124293 Z" fill="rgb(255,255,255)" stroke="#9A9A9A" stroke-width="2" stroke-linecap="round" stroke-linejoin="round"/></g><g transform="translate(894.5, 140)" width="61" height="20"><text text-decoration="none" x="16" fill="rgb(84, 84, 84)" font-size="11pt" font-family="lt_regular"  y="16">Post&#160;</text><text text-decoration="none" x="15" fill="rgb(84, 84, 84)" font-size="11pt" font-family="lt_regular"  y="36">Blog</text><text text-decoration="none" x="46" fill="#4b4b4b" font-size="10pt" font-family="noto_regular"  y="36"></text></g></g><g id="KcwbjuQ1Rg1"><g transform="translate(299.9999999999999 400.00000000000045)"><rect x="0" y="0" width="150" height="199.9999999999996" rx="2" ry="2" fill="rgb(255,255,255)" stroke="#5c1709" stroke-width="2" stroke-linecap="round" stroke-linejoin="round"/><path d="M 0,30 L 150,30" fill="rgb(255,255,255)" stroke="#5c1709" stroke-width="2" stroke-linecap="round" stroke-linejoin="round"/></g><g transform="translate(309.9999999999999, 405.00000000000045) rotate(0, 0, 0)" width="30" height="20"><text text-decoration="none" x="0" fill="#000000" font-size="11pt" font-family="lt_regular"  y="16">User</text><text text-decoration="none" x="30" fill="#4b4b4b" font-size="10pt" font-family="noto_regular"  y="16"></text></g><g transform="translate(309.9999999999999, 435.00000000000045) rotate(0, 0, 0)" width="103" height="60"><text text-decoration="none" x="0" fill="#000000" font-size="11pt" font-family="lt_regular"  y="16">+&#160;</text><text text-decoration="none" x="13" fill="#000000" font-size="11pt" font-family="lt_regular"  y="16">ViewBlog</text><text text-decoration="none" x="78" fill="#000000" font-size="11pt" font-family="lt_regular"  y="16"></text><text text-decoration="none" x="0" fill="#000000" font-size="11pt" font-family="lt_regular"  y="36">+&#160;</text><text text-decoration="none" x="0" fill="#000000" font-size="11pt" font-family="lt_regular"  y="56">PostComment</text><text text-decoration="none" x="93" fill="#000000" font-size="11pt" font-family="lt_regular"  y="56"></text><text text-decoration="none" x="0" fill="#000000" font-size="11pt" font-family="lt_regular"  y="76">+&#160;</text><text text-decoration="none" x="13" fill="#000000" font-size="11pt" font-family="lt_regular"  y="76">EditComment</text><text text-decoration="none" x="103" fill="#4b4b4b" font-size="10pt" font-family="noto_regular"  y="76"></text></g></g><g id="UGpWqFOEsfe"><g transform="translate(700 400.0000000000006)"><rect x="0" y="0" width="150.0000000000001" height="200" rx="2" ry="2" fill="rgb(255,255,255)" stroke="#5c1709" stroke-width="2" stroke-linecap="round" stroke-linejoin="round"/><path d="M 0,30 L 150.0000000000001,30" fill="rgb(255,255,255)" stroke="#5c1709" stroke-width="2" stroke-linecap="round" stroke-linejoin="round"/></g><g transform="translate(710, 405.0000000000006) rotate(0, 0, 0)" width="29" height="20"><text text-decoration="none" x="0" fill="#000000" font-size="11pt" font-family="lt_regular"  y="16">Blog</text><text text-decoration="none" x="31" fill="#4b4b4b" font-size="10pt" font-family="noto_regular"  y="16"></text></g><g transform="translate(710, 435.0000000000006) rotate(0, 0, 0)" width="115" height="160"><text text-decoration="none" x="0" fill="#000000" font-size="11pt" font-family="lt_regular"  y="16">-&#160;</text><text text-decoration="none" x="10" fill="#000000" font-size="11pt" font-family="lt_regular"  y="16">ViewBlog</text><text text-decoration="none" x="75" fill="#000000" font-size="11pt" font-family="lt_regular"  y="16"></text><text text-decoration="none" x="0" fill="#000000" font-size="11pt" font-family="lt_regular"  y="36">-&#160;</text><text text-decoration="none" x="10" fill="#000000" font-size="11pt" font-family="lt_regular"  y="36">Title</text><text text-decoration="none" x="40" fill="#000000" font-size="11pt" font-family="lt_regular"  y="36"></text><text text-decoration="none" x="0" fill="#000000" font-size="11pt" font-family="lt_regular"  y="56">-&#160;</text><text text-decoration="none" x="10" fill="#000000" font-size="11pt" font-family="lt_regular"  y="56">Body</text><text text-decoration="none" x="45" fill="#000000" font-size="11pt" font-family="lt_regular"  y="56"></text><text text-decoration="none" x="0" fill="#000000" font-size="11pt" font-family="lt_regular"  y="76">-&#160;</text><text text-decoration="none" x="10" fill="#000000" font-size="11pt" font-family="lt_regular"  y="76">Post</text><text text-decoration="none" x="39" fill="#000000" font-size="11pt" font-family="lt_regular"  y="76"></text><text text-decoration="none" x="0" fill="#000000" font-size="11pt" font-family="lt_regular"  y="96">-&#160;</text><text text-decoration="none" x="10" fill="#000000" font-size="11pt" font-family="lt_regular"  y="96">Edit</text><text text-decoration="none" x="36" fill="#000000" font-size="11pt" font-family="lt_regular"  y="96"></text><text text-decoration="none" x="0" fill="#000000" font-size="11pt" font-family="lt_regular"  y="116">-&#160;</text><text text-decoration="none" x="10" fill="#000000" font-size="11pt" font-family="lt_regular"  y="116">Delete&#160;</text><text text-decoration="none" x="58" fill="#000000" font-size="11pt" font-family="lt_regular"  y="116"></text><text text-decoration="none" x="0" fill="#000000" font-size="11pt" font-family="lt_regular"  y="136">-&#160;</text><text text-decoration="none" x="10" fill="#000000" font-size="11pt" font-family="lt_regular"  y="136">PrivacySet</text><text text-decoration="none" x="79" fill="#000000" font-size="11pt" font-family="lt_regular"  y="136"></text><text text-decoration="none" x="0" fill="#000000" font-size="11pt" font-family="lt_regular"  y="156">-&#160;</text><text text-decoration="none" x="0" fill="#000000" font-size="11pt" font-family="lt_regular"  y="176">CommentEnable</text><text text-decoration="none" x="108" fill="#4b4b4b" font-size="10pt" font-family="noto_regular"  y="176"></text></g></g><g id="Bu9IVhcJsA6"><g transform="translate(1050 400)"><rect x="0" y="0" width="199.99999999999997" height="199.99999999999994" rx="2" ry="2" fill="rgb(255,255,255)" stroke="#5c1709" stroke-width="2" stroke-linecap="round" stroke-linejoin="round"/><path d="M 0,30 L 199.99999999999997,30" fill="rgb(255,255,255)" stroke="#5c1709" stroke-width="2" stroke-linecap="round" stroke-linejoin="round"/></g><g transform="translate(1060, 405) rotate(0, 0, 0)" width="72" height="20"><text text-decoration="none" x="0" fill="#000000" font-size="11pt" font-family="lt_regular"  y="16">Privacy&#160;</text><text text-decoration="none" x="0" fill="#000000" font-size="11pt" font-family="lt_regular"  y="36">Set</text><text text-decoration="none" x="21" fill="#4b4b4b" font-size="10pt" font-family="noto_regular"  y="36"></text></g><g transform="translate(1060, 435) rotate(0, 0, 0)" width="115" height="80"><text text-decoration="none" x="0" fill="#000000" font-size="11pt" font-family="lt_regular"  y="16">Public</text><text text-decoration="none" x="40" fill="#000000" font-size="11pt" font-family="lt_regular"  y="16"></text><text text-decoration="none" x="0" fill="#000000" font-size="11pt" font-family="lt_regular"  y="36">Privet</text><text text-decoration="none" x="39" fill="#000000" font-size="11pt" font-family="lt_regular"  y="36"></text><text text-decoration="none" x="0" fill="#000000" font-size="11pt" font-family="lt_regular"  y="56">Enable&#160;</text><text text-decoration="none" x="48" fill="#000000" font-size="11pt" font-family="lt_regular"  y="56">Comment</text><text text-decoration="none" x="112" fill="#000000" font-size="11pt" font-family="lt_regular"  y="56"></text><text text-decoration="none" x="0" fill="#000000" font-size="11pt" font-family="lt_regular"  y="76">Disable&#160;</text><text text-decoration="none" x="0" fill="#000000" font-size="11pt" font-family="lt_regular"  y="96">Comment</text><text text-decoration="none" x="64" fill="#4b4b4b" font-size="10pt" font-family="noto_regular"  y="96"></text></g></g><g id="aM2lHeqxcRK"><mask id="c1944" x="1136" y="286" width="28" height="128" maskUnits="userSpaceOnUse"><rect x="1136" y="286" width="28" height="128" fill="white" /><rect x="1103" y="337" width="94" height="26" fill="black" /></mask><g mask="url(#c1944)"><path d="M 1150,300 L 1150,400" fill="none" stroke="#9A9A9A" stroke-width="2" stroke-linecap="round" stroke-linejoin="round" stroke-dasharray="3 3"/><path d="M 1150,400 L 1156.497175141243,393.04347826086956 M 1150,400 L 1143.502824858757,393.04347826086956 Z" fill="rgb(255,255,255)" stroke="#9A9A9A" stroke-width="2" stroke-linecap="round" stroke-linejoin="round"/></g><g transform="translate(1106, 340)" width="88" height="20"><text text-decoration="none" x="20" fill="rgb(84, 84, 84)" font-size="11pt" font-family="lt_regular"  y="16">Privacy&#160;</text><text text-decoration="none" x="25.5" fill="rgb(84, 84, 84)" font-size="11pt" font-family="lt_regular"  y="36">Setup</text><text text-decoration="none" x="62.5" fill="#4b4b4b" font-size="10pt" font-family="noto_regular"  y="36"></text></g></g><g id="4h7GXEUjbep"><mask id="c1705" x="761" y="236" width="28" height="178" maskUnits="userSpaceOnUse"><rect x="761" y="236" width="28" height="178" fill="white" /><rect x="739" y="312" width="72" height="26" fill="black" /></mask><g mask="url(#c1705)"><path d="M 775,250 L 775,400" fill="none" stroke="#9A9A9A" stroke-width="2" stroke-linecap="round" stroke-linejoin="round" stroke-dasharray="0 0"/><path d="M 775,400 L 781.4971751412429,393.04347826086956 M 775,400 L 768.5028248587571,393.04347826086956 Z" fill="rgb(255,255,255)" stroke="#9A9A9A" stroke-width="2" stroke-linecap="round" stroke-linejoin="round"/></g><g transform="translate(742, 315)" width="66" height="20"><text text-decoration="none" x="16" fill="rgb(84, 84, 84)" font-size="11pt" font-family="lt_regular"  y="16">View&#160;</text><text text-decoration="none" x="17.5" fill="rgb(84, 84, 84)" font-size="11pt" font-family="lt_regular"  y="36">Blog</text><text text-decoration="none" x="48.5" fill="#4b4b4b" font-size="10pt" font-family="noto_regular"  y="36"></text></g></g><g id="2H2KLndJrPe"><mask id="05875" x="436" y="436" width="278" height="28" maskUnits="userSpaceOnUse"><rect x="436" y="436" width="278" height="28" fill="white" /><rect x="539" y="437.0000000000001" width="72" height="26" fill="black" /></mask><g mask="url(#05875)"><path d="M 450,450 L 565,450.00000000000034 Q 565.0000000000003,450.00000000000034 575,450 Q 584.9999999999993,450.00000000000057 585,450.00000000000057 L 700,450" fill="none" stroke="#9A9A9A" stroke-width="2" stroke-linecap="round" stroke-linejoin="round" stroke-dasharray="0 0"/><path d="M 700,450 L 693.0434782608696,443.50282485875704 M 700,450 L 693.0434782608696,456.49717514124296 Z" fill="rgb(255,255,255)" stroke="#9A9A9A" stroke-width="2" stroke-linecap="round" stroke-linejoin="round"/></g><g transform="translate(542, 440.0000000000001)" width="66" height="20"><text text-decoration="none" x="16" fill="rgb(84, 84, 84)" font-size="11pt" font-family="lt_regular"  y="16">View&#160;</text><text text-decoration="none" x="17.5" fill="rgb(84, 84, 84)" font-size="11pt" font-family="lt_regular"  y="36">Blog</text><text text-decoration="none" x="48.5" fill="#4b4b4b" font-size="10pt" font-family="noto_regular"  y="36"></text></g></g><g id="01m5JBzBzi0"><mask id="df820" x="436" y="486" width="278" height="28" maskUnits="userSpaceOnUse"><rect x="436" y="486" width="278" height="28" fill="white" /><rect x="466" y="487.00000000000006" width="28" height="26" fill="black" /><rect x="655" y="487.00000000000017" width="30" height="26" fill="black" /></mask><g mask="url(#df820)"><path d="M 450,500 L 565,500.0000000000002 Q 565.0000000000002,500.0000000000002 575,500 Q 584.9999999999993,500.0000000000006 585,500.0000000000006 L 700,500" fill="none" stroke="#9A9A9A" stroke-width="2" stroke-linecap="round" stroke-linejoin="round" stroke-dasharray="3 3"/></g><g transform="translate(469, 490.00000000000006)" width="22" height="20"><text text-decoration="none" x="0" fill="#4b4b4b" font-size="11pt" font-family="lt_regular"  y="16">1..*</text><text text-decoration="none" x="23" fill="#4b4b4b" font-size="10pt" font-family="noto_regular"  y="16"></text></g><g transform="translate(658, 490.00000000000017)" width="24" height="20"><text text-decoration="none" x="0" fill="#4b4b4b" font-size="11pt" font-family="lt_regular"  y="16">0..1</text><text text-decoration="none" x="26" fill="#4b4b4b" font-size="10pt" font-family="noto_regular"  y="16"></text></g></g><g id="x7NzfbeedEL"><g transform="translate(549.9999999999999 470.00000000000006)"><rect x="0" y="0" width="70.0000000000001" height="40" fill="rgba(255,255,255,0.01)" stroke="rgba(255,255,255,0.01)"/></g><g transform="translate(559.9999999999999, 480.00000000000006) rotate(0, 0, 0)" width="49" height="20"><text text-decoration="none" x="0" fill="#4b4b4b" font-size="11pt" font-family="lt_regular"  y="16">Denied&#160;</text><text text-decoration="none" x="50" fill="#4b4b4b" font-size="10pt" font-family="noto_regular"  y="16"></text></g></g><g id="dTDLVAxRqZ7"><mask id="ed207" x="836" y="436" width="228" height="28" maskUnits="userSpaceOnUse"><rect x="836" y="436" width="228" height="28" fill="white" /><rect x="894.5" y="437.00000000000034" width="111" height="26" fill="black" /></mask><g mask="url(#ed207)"><path d="M 1050,450 L 960,450 Q 960,450 950,450 Q 940.0000000000007,450.00000000000057 940,450.00000000000057 L 850,450" fill="none" stroke="#9A9A9A" stroke-width="2" stroke-linecap="round" stroke-linejoin="round" stroke-dasharray="3 3"/><path d="M 850,450 L 856.9565217391304,456.49717514124296 M 850,450 L 856.9565217391304,443.50282485875704 Z" fill="rgb(255,255,255)" stroke="#9A9A9A" stroke-width="2" stroke-linecap="round" stroke-linejoin="round"/></g><g transform="translate(897.5, 440.00000000000034)" width="105" height="20"><text text-decoration="none" x="24.5" fill="rgb(84, 84, 84)" font-size="11pt" font-family="lt_regular"  y="16">Set&#160;</text><text text-decoration="none" x="49.5" fill="rgb(84, 84, 84)" font-size="11pt" font-family="lt_regular"  y="16">Blog&#160;</text><text text-decoration="none" x="28.5" fill="rgb(84, 84, 84)" font-size="11pt" font-family="lt_regular"  y="36">Privacy</text><text text-decoration="none" x="76.5" fill="#4b4b4b" font-size="10pt" font-family="noto_regular"  y="36"></text></g></g><g id="DJBZ30zJmgL"><g transform="translate(699.9999999999999 750)"><rect x="0" y="0" width="150.00000000000006" height="200" rx="2" ry="2" fill="rgb(255,255,255)" stroke="#5c1709" stroke-width="2" stroke-linecap="round" stroke-linejoin="round"/><path d="M 0,30 L 150.00000000000006,30" fill="rgb(255,255,255)" stroke="#5c1709" stroke-width="2" stroke-linecap="round" stroke-linejoin="round"/></g><g transform="translate(709.9999999999999, 755) rotate(0, 0, 0)" width="63" height="20"><text text-decoration="none" x="0" fill="#000000" font-size="11pt" font-family="lt_regular"  y="16">Comment</text><text text-decoration="none" x="64" fill="#4b4b4b" font-size="10pt" font-family="noto_regular"  y="16"></text></g><g transform="translate(709.9999999999999, 785) rotate(0, 0, 0)" width="109" height="120"><text text-decoration="none" x="0" fill="#000000" font-size="11pt" font-family="lt_regular"  y="16">-&#160;</text><text text-decoration="none" x="10" fill="#000000" font-size="11pt" font-family="lt_regular"  y="16">View&#160;</text><text text-decoration="none" x="0" fill="#000000" font-size="11pt" font-family="lt_regular"  y="36">Comment</text><text text-decoration="none" x="64" fill="#000000" font-size="11pt" font-family="lt_regular"  y="36"></text><text text-decoration="none" x="0" fill="#000000" font-size="11pt" font-family="lt_regular"  y="56">-&#160;</text><text text-decoration="none" x="10" fill="#000000" font-size="11pt" font-family="lt_regular"  y="56">Username</text><text text-decoration="none" x="75" fill="#000000" font-size="11pt" font-family="lt_regular"  y="56"></text><text text-decoration="none" x="0" fill="#000000" font-size="11pt" font-family="lt_regular"  y="76">-&#160;</text><text text-decoration="none" x="10" fill="#000000" font-size="11pt" font-family="lt_regular"  y="76">Body</text><text text-decoration="none" x="45" fill="#000000" font-size="11pt" font-family="lt_regular"  y="76"></text><text text-decoration="none" x="0" fill="#000000" font-size="11pt" font-family="lt_regular"  y="96">-&#160;</text><text text-decoration="none" x="10" fill="#000000" font-size="11pt" font-family="lt_regular"  y="96">Post</text><text text-decoration="none" x="39" fill="#000000" font-size="11pt" font-family="lt_regular"  y="96"></text><text text-decoration="none" x="0" fill="#000000" font-size="11pt" font-family="lt_regular"  y="116">-&#160;</text><text text-decoration="none" x="10" fill="#000000" font-size="11pt" font-family="lt_regular"  y="116">Edit</text><text text-decoration="none" x="36" fill="#000000" font-size="11pt" font-family="lt_regular"  y="116"></text><text text-decoration="none" x="0" fill="#000000" font-size="11pt" font-family="lt_regular"  y="136">-&#160;</text><text text-decoration="none" x="10" fill="#000000" font-size="11pt" font-family="lt_regular"  y="136">Delete&#160;</text><text text-decoration="none" x="58" fill="#4b4b4b" font-size="10pt" font-family="noto_regular"  y="136"></text></g></g><g id="4lSFWp07bDd"><g transform="translate(250.0000000000001 750)"><rect x="0" y="0" width="249.99999999999983" height="250" rx="2" ry="2" fill="rgb(255,255,255)" stroke="#5c1709" stroke-width="2" stroke-linecap="round" stroke-linejoin="round"/><path d="M 0,30 L 249.99999999999983,30 M 0,140 L 249.99999999999983,140" fill="rgb(255,255,255)" stroke="#5c1709" stroke-width="2" stroke-linecap="round" stroke-linejoin="round"/></g><g transform="translate(260.0000000000001, 755) rotate(0, 0, 0)" width="95" height="20"><text text-decoration="none" x="0" fill="#000000" font-size="11pt" font-family="lt_regular"  y="16">Comment&#160;</text><text text-decoration="none" x="0" fill="#000000" font-size="11pt" font-family="lt_regular"  y="36">Post</text><text text-decoration="none" x="29" fill="#4b4b4b" font-size="10pt" font-family="noto_regular"  y="36"></text></g><g transform="translate(260.0000000000001, 785) rotate(0, 0, 0)" width="176" height="100"><text text-decoration="none" x="0" fill="#000000" font-size="11pt" font-family="lt_regular"  y="16">-&#160;</text><text text-decoration="none" x="10" fill="#000000" font-size="11pt" font-family="lt_regular"  y="16">UserName:&#160;</text><text text-decoration="none" x="86" fill="#000000" font-size="11pt" font-family="lt_regular"  y="16">String</text><text text-decoration="none" x="124" fill="#000000" font-size="11pt" font-family="lt_regular"  y="16"></text><text text-decoration="none" x="0" fill="#000000" font-size="11pt" font-family="lt_regular"  y="36">-&#160;</text><text text-decoration="none" x="10" fill="#000000" font-size="11pt" font-family="lt_regular"  y="36">PostComment&#160;</text><text text-decoration="none" x="107" fill="#000000" font-size="11pt" font-family="lt_regular"  y="36">:&#160;</text><text text-decoration="none" x="115" fill="#000000" font-size="11pt" font-family="lt_regular"  y="36">String</text><text text-decoration="none" x="153" fill="#000000" font-size="11pt" font-family="lt_regular"  y="36"></text><text text-decoration="none" x="0" fill="#000000" font-size="11pt" font-family="lt_regular"  y="56">-&#160;</text><text text-decoration="none" x="10" fill="#000000" font-size="11pt" font-family="lt_regular"  y="56">EditComment&#160;</text><text text-decoration="none" x="104" fill="#000000" font-size="11pt" font-family="lt_regular"  y="56">:&#160;</text><text text-decoration="none" x="112" fill="#000000" font-size="11pt" font-family="lt_regular"  y="56">String</text><text text-decoration="none" x="150" fill="#000000" font-size="11pt" font-family="lt_regular"  y="56"></text><text text-decoration="none" x="0" fill="#000000" font-size="11pt" font-family="lt_regular"  y="76">-&#160;</text><text text-decoration="none" x="10" fill="#000000" font-size="11pt" font-family="lt_regular"  y="76">DeleteComment:&#160;</text><text text-decoration="none" x="0" fill="#000000" font-size="11pt" font-family="lt_regular"  y="96">Boolean</text><text text-decoration="none" x="55" fill="#000000" font-size="11pt" font-family="lt_regular"  y="96"></text><text text-decoration="none" x="0" fill="#000000" font-size="11pt" font-family="lt_regular"  y="116">-&#160;</text><text text-decoration="none" x="10" fill="#000000" font-size="11pt" font-family="lt_regular"  y="116">SetDate&#160;</text><text text-decoration="none" x="66" fill="#000000" font-size="11pt" font-family="lt_regular"  y="116">:&#160;</text><text text-decoration="none" x="74" fill="#000000" font-size="11pt" font-family="lt_regular"  y="116">Date</text><text text-decoration="none" x="105" fill="#4b4b4b" font-size="10pt" font-family="noto_regular"  y="116"></text></g><g transform="translate(260.0000000000001, 895) rotate(0, 0, 0)" width="173" height="100"><text text-decoration="none" x="0" fill="#000000" font-size="11pt" font-family="lt_regular"  y="16">-&#160;</text><text text-decoration="none" x="10" fill="#000000" font-size="11pt" font-family="lt_regular"  y="16">UserName:&#160;</text><text text-decoration="none" x="0" fill="#000000" font-size="11pt" font-family="lt_regular"  y="36">GetUsername</text><text text-decoration="none" x="89" fill="#000000" font-size="11pt" font-family="lt_regular"  y="36"></text><text text-decoration="none" x="0" fill="#000000" font-size="11pt" font-family="lt_regular"  y="56">+&#160;</text><text text-decoration="none" x="13" fill="#000000" font-size="11pt" font-family="lt_regular"  y="56">PostComment&#160;</text><text text-decoration="none" x="110" fill="#000000" font-size="11pt" font-family="lt_regular"  y="56">:&#160;</text><text text-decoration="none" x="118" fill="#000000" font-size="11pt" font-family="lt_regular"  y="56">Post</text><text text-decoration="none" x="147" fill="#000000" font-size="11pt" font-family="lt_regular"  y="56"></text><text text-decoration="none" x="0" fill="#000000" font-size="11pt" font-family="lt_regular"  y="76">+&#160;</text><text text-decoration="none" x="13" fill="#000000" font-size="11pt" font-family="lt_regular"  y="76">EditComment&#160;</text><text text-decoration="none" x="107" fill="#000000" font-size="11pt" font-family="lt_regular"  y="76">:&#160;</text><text text-decoration="none" x="115" fill="#000000" font-size="11pt" font-family="lt_regular"  y="76">Edit</text><text text-decoration="none" x="141" fill="#000000" font-size="11pt" font-family="lt_regular"  y="76"></text><text text-decoration="none" x="0" fill="#000000" font-size="11pt" font-family="lt_regular"  y="96">+&#160;</text><text text-decoration="none" x="13" fill="#000000" font-size="11pt" font-family="lt_regular"  y="96">DeleteComment&#160;</text><text text-decoration="none" x="125" fill="#000000" font-size="11pt" font-family="lt_regular"  y="96">()</text><text text-decoration="none" x="133" fill="#000000" font-size="11pt" font-family="lt_regular"  y="96"></text><text text-decoration="none" x="0" fill="#000000" font-size="11pt" font-family="lt_regular"  y="116">+&#160;</text><text text-decoration="none" x="13" fill="#000000" font-size="11pt" font-family="lt_regular"  y="116">SetDate:&#160;</text><text text-decoration="none" x="73" fill="#000000" font-size="11pt" font-family="lt_regular"  y="116">Date</text><text text-decoration="none" x="104" fill="#4b4b4b" font-size="10pt" font-family="noto_regular"  y="116"></text></g></g><g id="a06PYBnK0K0"><mask id="7a3c3" x="836" y="586" width="278" height="278" maskUnits="userSpaceOnUse"><rect x="836" y="586" width="278" height="278" fill="white" /><rect x="1013" y="837" width="174" height="26" fill="black" /></mask><g mask="url(#7a3c3)"><path d="M 1100,600 L 1100,840 Q 1100,850 1090,850 L 850,850" fill="none" stroke="#9A9A9A" stroke-width="2" stroke-linecap="round" stroke-linejoin="round" stroke-dasharray="0 0"/><path d="M 850,850 L 856.9565217391304,856.4971751412429 M 850,850 L 856.9565217391304,843.5028248587571 Z" fill="rgb(255,255,255)" stroke="#9A9A9A" stroke-width="2" stroke-linecap="round" stroke-linejoin="round"/></g><g transform="translate(1016, 840)" width="168" height="20"><text text-decoration="none" x="0" fill="rgb(84, 84, 84)" font-size="11pt" font-family="lt_regular"  y="16">Enable/Disable&#160;</text><text text-decoration="none" x="103" fill="rgb(84, 84, 84)" font-size="11pt" font-family="lt_regular"  y="16">Comment&#160;</text><text text-decoration="none" x="171" fill="#4b4b4b" font-size="10pt" font-family="noto_regular"  y="16"></text></g></g><g id="wA7AMX2Rg47"><mask id="509da" x="424" y="586" width="790" height="448" maskUnits="userSpaceOnUse"><rect x="424" y="586" width="790" height="448" fill="white" /><rect x="931.7706617402761" y="1006.89292219285" width="174" height="26" fill="black" /></mask><g mask="url(#509da)"><path d="M 1200,600 L 1200,1009.7706978478773 Q 1200,1019.7706978478773 1190.000002274198,1019.7774420272883 L 860,1020 L 529.9999977258019,1019.7774420272883 Q 529.770695625827,1019.777287381803 520,1020 Q 510,1020 510,1020 L 479,1020 L 448,1020 Q 438,1020 438,1010 L 438,1000" fill="none" stroke="#9A9A9A" stroke-width="2" stroke-linecap="round" stroke-linejoin="round" stroke-dasharray="3 3"/></g><g transform="translate(934.7706617402761, 1009.89292219285)" width="168" height="20"><text text-decoration="none" x="0" fill="rgb(84, 84, 84)" font-size="11pt" font-family="lt_regular"  y="16">Enable/Disable&#160;</text><text text-decoration="none" x="103" fill="rgb(84, 84, 84)" font-size="11pt" font-family="lt_regular"  y="16">Comment&#160;</text><text text-decoration="none" x="171" fill="#4b4b4b" font-size="10pt" font-family="noto_regular"  y="16"></text></g></g><g id="Z7uOS8WVKST"><mask id="59ec6" x="361" y="586" width="28" height="178" maskUnits="userSpaceOnUse"><rect x="361" y="586" width="28" height="178" fill="white" /><rect x="324.49999999999994" y="662" width="101" height="26" fill="black" /></mask><g mask="url(#59ec6)"><path d="M 375,600 L 374.9999999999999,665 Q 374.9999999999999,665.0000000000001 375,675 Q 375,685 375,685 L 375,750" fill="none" stroke="#9A9A9A" stroke-width="2" stroke-linecap="round" stroke-linejoin="round" stroke-dasharray="0 0"/></g><g transform="translate(327.49999999999994, 665)" width="95" height="20"><text text-decoration="none" x="33" fill="rgb(84, 84, 84)" font-size="11pt" font-family="lt_regular"  y="16">Post&#160;</text><text text-decoration="none" x="15.5" fill="rgb(84, 84, 84)" font-size="11pt" font-family="lt_regular"  y="36">Comment</text><text text-decoration="none" x="79.5" fill="#4b4b4b" font-size="10pt" font-family="noto_regular"  y="36"></text></g></g><g id="zS6jCtoF0aa"><mask id="34409" x="436" y="536" width="278" height="278" maskUnits="userSpaceOnUse"><rect x="436" y="536" width="278" height="278" fill="white" /><rect x="522" y="662.0000000000002" width="106" height="26" fill="black" /></mask><g mask="url(#34409)"><path d="M 450,550 L 564.9999999999999,550.0000000000001 Q 574.9999999999999,550.0000000000001 574.9999999999999,560.0000000000001 L 575,675 L 574.9999999999999,790 Q 574.9999999999999,800 584.9999999999999,800 L 700,800" fill="none" stroke="#9A9A9A" stroke-width="2" stroke-linecap="round" stroke-linejoin="round" stroke-dasharray="0 0"/><path d="M 700,800 L 693.0434782608696,793.5028248587571 M 700,800 L 693.0434782608696,806.4971751412429 Z" fill="rgb(255,255,255)" stroke="#9A9A9A" stroke-width="2" stroke-linecap="round" stroke-linejoin="round"/></g><g transform="translate(525, 665.0000000000002)" width="100" height="20"><text text-decoration="none" x="33" fill="rgb(84, 84, 84)" font-size="11pt" font-family="lt_regular"  y="16">View&#160;</text><text text-decoration="none" x="18" fill="rgb(84, 84, 84)" font-size="11pt" font-family="lt_regular"  y="36">Comment</text><text text-decoration="none" x="82" fill="#4b4b4b" font-size="10pt" font-family="noto_regular"  y="36"></text></g></g><g id="2YDihLq6gJF"><mask id="ad086" x="187" y="536" width="564" height="529" maskUnits="userSpaceOnUse"><rect x="187" y="536" width="564" height="529" fill="white" /><rect x="193.50000078370203" y="1038" width="52" height="26" fill="black" /></mask><g mask="url(#ad086)"><path d="M 300,550 L 211,550 Q 201,550 201,560 L 201,801 L 201,1041 Q 201,1051 211,1051 L 469,1051 L 726.9920331825482,1051 Q 736.9920331825482,1051 736.9940248868717,1041.0000001983442 L 737,1011 L 736.9939763087193,979.999999811213 Q 736.9939747606661,979.9920329939116 737,970 Q 737,960 737,960 L 737,950" fill="none" stroke="#9A9A9A" stroke-width="2" stroke-linecap="round" stroke-linejoin="round" stroke-dasharray="3 3"/></g><g transform="translate(196.50000078370203, 1041)" width="46" height="20"><text text-decoration="none" x="0" fill="rgb(84, 84, 84)" font-size="11pt" font-family="lt_regular"  y="16">Denied</text><text text-decoration="none" x="47" fill="#4b4b4b" font-size="10pt" font-family="noto_regular"  y="16"></text></g></g><g id="EorYF6VcF2R"><mask id="534b3" x="799" y="186" width="97" height="578" maskUnits="userSpaceOnUse"><rect x="799" y="186" width="97" height="578" fill="white" /><rect x="770" y="717" width="106" height="26" fill="black" /><rect x="864.5" y="187" width="31" height="26" fill="black" /></mask><g mask="url(#534b3)"><path d="M 813,750 L 813,740 Q 813,730 823,730 L 847,730 L 871.5850713880066,730 Q 881.5850713880066,730 881.6007290522846,720.00001225813 L 882,465 L 881.6007290522846,209.99998774186994 Q 881.5850713880066,200 871.5850713880066,200 L 850,200" fill="none" stroke="#9A9A9A" stroke-width="2" stroke-linecap="round" stroke-linejoin="round"/></g><g transform="translate(773, 720)" width="100" height="20"><text text-decoration="none" x="18" fill="rgb(75, 75, 75)" font-size="11pt" font-family="lt_regular"  y="16">Comment&#160;</text><text text-decoration="none" x="33" fill="rgb(75, 75, 75)" font-size="11pt" font-family="lt_regular"  y="36">View</text><text text-decoration="none" x="67" fill="#4b4b4b" font-size="10pt" font-family="noto_regular"  y="36"></text></g><g transform="translate(867.5, 190)" width="25" height="20"><text text-decoration="none" x="0" fill="#4b4b4b" font-size="11pt" font-family="lt_regular"  y="16">text</text><text text-decoration="none" x="25" fill="#4b4b4b" font-size="10pt" font-family="noto_regular"  y="16"></text></g></g><g id="91xu35KPeoX"><g><path d="M 738,250 L 738,287.9899764903513 Q 738,297.9899764903513 728.0000000052613,297.99030087577665 L 429,298 L 128.9999999947726,297.9902998293721 Q 119,297.9899764903513 119,307.9899764903513 L 119,555 L 119,803 Q 119,813 129,813 L 250,813" fill="none" stroke="#7E7E7E" stroke-width="2" stroke-linecap="round" stroke-linejoin="round" stroke-dasharray="3 3"/></g></g></svg>